<svg xmlns="http://www.w3.org/2000/svg"><symbol id="dni" viewBox="0 0 20 15"><title>Fill 185</title><path d="M16.344 5.625a.617.617 0 0 1-.61.625h-1.218a.617.617 0 0 1-.61-.625v-1.25c0-.345.273-.625.61-.625h1.218c.337 0 .61.28.61.625v1.25zm0-3.125h-2.438c-.673 0-1.219.56-1.219 1.25v2.5c0 .69.546 1.25 1.22 1.25h2.437c.672 0 1.218-.56 1.218-1.25v-2.5c0-.69-.546-1.25-1.218-1.25zm2.437 10c0 .69-.546 1.25-1.218 1.25H2.938c-.673 0-1.22-.56-1.22-1.25v-10c0-.69.547-1.25 1.22-1.25h14.624c.673 0 1.22.56 1.22 1.25v10zM17.563 0H2.938C1.59 0 .5 1.12.5 2.5v10c0 1.38 1.091 2.5 2.438 2.5h14.624C18.91 15 20 13.88 20 12.5v-10C20 1.12 18.909 0 17.562 0zm-6.704 11.25H3.547c-.337 0-.61.28-.61.625 0 .346.273.625.61.625h7.312c.337 0 .61-.28.61-.625a.617.617 0 0 0-.61-.625zm0-2.5H3.547c-.337 0-.61.28-.61.625 0 .346.273.625.61.625h7.312c.337 0 .61-.28.61-.625a.617.617 0 0 0-.61-.625z" fill-rule="evenodd"/></symbol><symbol id="mail" viewBox="0 0 20 15"><title>Fill 186</title><path d="M18.75 12.5c0 .127-.024.247-.06.361l-5.565-5.986L18.75 2.5v10zM2.223 13.716l5.64-6.01L10 9.322l2.045-1.626 5.732 6.02c-.089.02-15.465.02-15.555 0zM1.25 12.5v-10l5.625 4.375-5.566 5.986a1.228 1.228 0 0 1-.059-.361zM18.125 1.25L10 7.5 1.875 1.25h16.25zM17.5 0h-15A2.5 2.5 0 0 0 0 2.5v10A2.5 2.5 0 0 0 2.5 15h15a2.5 2.5 0 0 0 2.5-2.5v-10A2.5 2.5 0 0 0 17.5 0z" fill-rule="evenodd"/></symbol><symbol id="pass" viewBox="0 0 12 19"><title>Fill 174</title><path d="M6 17.813c-2.65 0-4.8-2.127-4.8-4.75 0-2.624 2.15-4.75 4.8-4.75 2.56 0 4.8 2.215 4.8 4.75 0 2.623-2.15 4.75-4.8 4.75zM2.4 4.75c0-1.967 1.612-3.563 3.6-3.563S9.6 2.784 9.6 4.75v3.57A6.005 6.005 0 0 0 6 7.126a6.006 6.006 0 0 0-3.6 1.196V4.75zm8.4 4.761V4.75C10.8 2.127 8.65 0 6 0S1.2 2.127 1.2 4.75v4.761A5.863 5.863 0 0 0 0 13.063C0 16.341 2.687 19 6 19s6-2.658 6-5.938c0-1.333-.45-2.56-1.2-3.55zM6 11.875c-.332 0-.6.266-.6.594v2.375c0 .328.268.594.6.594.332 0 .6-.266.6-.594v-2.375a.597.597 0 0 0-.6-.594z" fill-rule="evenodd"/></symbol></svg>