<?xml version="1.0" encoding="UTF-8" standalone="no"?>
<svg width="20px" height="15px" viewBox="0 0 20 15" version="1.1" xmlns="http://www.w3.org/2000/svg" xmlns:xlink="http://www.w3.org/1999/xlink">
    <!-- Generator: Sketch 3.6.1 (26313) - http://www.bohemiancoding.com/sketch -->
    <title>Fill 185</title>
    <desc>Created with Sketch.</desc>
    <defs></defs>
    <g id="Page-1" stroke="none" stroke-width="1" fill="none" fill-rule="evenodd">
        <path d="M16.34375,5.625 C16.34375,5.970625 16.0713594,6.25 15.734375,6.25 L14.515625,6.25 C14.1786406,6.25 13.90625,5.970625 13.90625,5.625 L13.90625,4.375 C13.90625,4.03 14.1786406,3.75 14.515625,3.75 L15.734375,3.75 C16.0713594,3.75 16.34375,4.03 16.34375,4.375 L16.34375,5.625 L16.34375,5.625 Z M16.34375,2.5 L13.90625,2.5 C13.2335,2.5 12.6875,3.06 12.6875,3.75 L12.6875,6.25 C12.6875,6.94 13.2335,7.5 13.90625,7.5 L16.34375,7.5 C17.0165,7.5 17.5625,6.94 17.5625,6.25 L17.5625,3.75 C17.5625,3.06 17.0165,2.5 16.34375,2.5 L16.34375,2.5 Z M18.78125,12.5 C18.78125,13.19 18.23525,13.75 17.5625,13.75 L2.9375,13.75 C2.26475,13.75 1.71875,13.19 1.71875,12.5 L1.71875,2.5 C1.71875,1.81 2.26475,1.25 2.9375,1.25 L17.5625,1.25 C18.23525,1.25 18.78125,1.81 18.78125,2.5 L18.78125,12.5 L18.78125,12.5 Z M17.5625,0 L2.9375,0 C1.59139062,0 0.5,1.119375 0.5,2.5 L0.5,12.5 C0.5,13.880625 1.59139062,15 2.9375,15 L17.5625,15 C18.9086094,15 20,13.880625 20,12.5 L20,2.5 C20,1.119375 18.9086094,0 17.5625,0 L17.5625,0 Z M10.859375,11.25 L3.546875,11.25 C3.20989063,11.25 2.9375,11.529375 2.9375,11.875 C2.9375,12.220625 3.20989063,12.5 3.546875,12.5 L10.859375,12.5 C11.1963594,12.5 11.46875,12.220625 11.46875,11.875 C11.46875,11.529375 11.1963594,11.25 10.859375,11.25 L10.859375,11.25 Z M10.859375,8.75 L3.546875,8.75 C3.20989063,8.75 2.9375,9.03 2.9375,9.375 C2.9375,9.720625 3.20989063,10 3.546875,10 L10.859375,10 C11.1963594,10 11.46875,9.720625 11.46875,9.375 C11.46875,9.03 11.1963594,8.75 10.859375,8.75 L10.859375,8.75 Z" id="Fill-185" fill="#5A5555"></path>
    </g>
</svg>