<?xml version="1.0" encoding="UTF-8" standalone="no"?>
<svg width="20px" height="15px" viewBox="0 0 20 15" version="1.1" xmlns="http://www.w3.org/2000/svg" xmlns:xlink="http://www.w3.org/1999/xlink">
    <!-- Generator: Sketch 3.6.1 (26313) - http://www.bohemiancoding.com/sketch -->
    <title>Fill 186</title>
    <desc>Created with Sketch.</desc>
    <defs></defs>
    <g id="Page-1" stroke="none" stroke-width="1" fill="none" fill-rule="evenodd">
        <path d="M18.75,12.5 C18.75,12.626875 18.725625,12.746875 18.690625,12.86125 L13.125,6.875 L18.75,2.5 L18.75,12.5 L18.75,12.5 Z M2.2225,13.71625 L7.8625,7.70625 L10,9.321875 L12.045,7.69625 L17.7775,13.71625 C17.688125,13.736875 2.311875,13.736875 2.2225,13.71625 L2.2225,13.71625 Z M1.25,12.5 L1.25,2.5 L6.875,6.875 L1.309375,12.86125 C1.274375,12.746875 1.25,12.626875 1.25,12.5 L1.25,12.5 Z M18.125,1.25 L10,7.5 L1.875,1.25 L18.125,1.25 L18.125,1.25 Z M17.5,0 L2.5,0 C1.119375,0 0,1.119375 0,2.5 L0,12.5 C0,13.880625 1.119375,15 2.5,15 L17.5,15 C18.880625,15 20,13.880625 20,12.5 L20,2.5 C20,1.119375 18.880625,0 17.5,0 L17.5,0 Z" id="Fill-186" fill="#5A5555"></path>
    </g>
</svg>